<svg xmlns="http://www.w3.org/2000/svg" width="249" height="89" viewBox="0 0 249 89" fill="none"><path d="M129.965 20.3351H125.435V17.9951H137.055V20.3351H132.525V32.3251H129.965V20.3351Z" fill="white"></path><path d="M139.735 17.9951H150.365V20.2551H142.245V23.9651H149.455V26.2351H142.245V30.0651H150.445V32.3251H139.735V17.9951Z" fill="white"></path><path d="M165.565 17.9951L160.585 24.9951L165.775 32.3251H162.805L159.015 26.8451L155.265 32.3251H152.385L157.535 25.0351L152.585 17.9951H155.555L159.095 23.2251L162.685 17.9951H165.565Z" fill="white"></path><path d="M173.185 17.9053H175.535L181.835 32.3253H179.155L177.715 28.8653H170.915L169.435 32.3253H166.835L173.175 17.9053H173.185ZM176.775 26.6453L174.305 20.9153L171.835 26.6453H176.775Z" fill="white"></path><path d="M183.075 30.2254L184.595 28.4154C185.955 29.6054 187.355 30.2654 189.125 30.2654C190.695 30.2654 191.675 29.5254 191.675 28.4554V28.4154C191.675 27.3854 191.095 26.8454 188.465 26.2354C185.415 25.4954 183.685 24.5854 183.685 21.9554V21.9154C183.685 19.4454 185.745 17.7554 188.585 17.7554C190.685 17.7554 192.335 18.3754 193.775 19.5654L192.415 21.4654C191.135 20.5154 189.815 19.9854 188.545 19.9854C187.065 19.9854 186.195 20.7254 186.195 21.6754V21.7154C186.195 22.8254 186.855 23.3254 189.615 23.9854C192.665 24.7254 194.185 25.7954 194.185 28.1854V28.2254C194.185 30.9054 192.085 32.5054 189.075 32.5054C186.855 32.5454 184.795 31.8054 183.055 30.2354" fill="white"></path><path d="M208.375 17.9053H210.725L217.025 32.3253H214.345L212.905 28.8653H206.105L204.625 32.3253H202.025L208.365 17.9053H208.375ZM211.955 26.6453L209.485 20.9153L207.015 26.6453H211.955Z" fill="white"></path><path d="M226.955 30.6854C225.715 31.8354 224.275 32.5354 222.585 32.5354C219.905 32.5354 217.885 30.9254 217.885 28.4554V28.4154C217.885 26.5654 218.955 25.2454 220.935 24.4154C220.115 23.3854 219.745 22.4754 219.745 21.4054V21.3654C219.745 19.4254 221.315 17.7354 223.865 17.7354C226.135 17.7354 227.655 19.2554 227.655 21.1954V21.2354C227.655 23.1354 226.415 24.2454 224.525 24.9454L226.995 27.4554C227.535 26.6354 228.065 25.6854 228.515 24.6954L230.415 25.6854C229.835 26.8354 229.225 27.9554 228.475 28.9354L231.775 32.2754H228.525L226.955 30.6654V30.6854ZM225.515 29.1954L222.305 25.9454C220.985 26.5254 220.405 27.3854 220.405 28.3354V28.3754C220.405 29.5654 221.395 30.4754 222.795 30.4754C223.825 30.4354 224.695 29.9854 225.515 29.1954ZM225.435 21.4154C225.435 20.4254 224.775 19.7654 223.825 19.7654C222.795 19.7654 222.095 20.4654 222.095 21.4954V21.5354C222.095 22.2354 222.385 22.7754 223.165 23.6754C224.645 23.0954 225.435 22.4354 225.435 21.4054" fill="white"></path><path d="M233.715 17.9951H236.395L240.755 24.7851L245.125 17.9951H247.805V32.3251H245.295V22.0651L240.755 28.8251H240.675L236.185 22.1151V32.3251H233.715V17.9951Z" fill="white"></path><path d="M126.135 45.4751V38.7551H127.005V45.3851C127.005 48.1051 128.445 49.6251 130.875 49.6251C133.305 49.6251 134.705 48.2251 134.705 45.4651V38.7451H135.575V45.3351C135.575 48.6351 133.675 50.3651 130.875 50.3651C128.075 50.4051 126.135 48.6751 126.135 45.4651" fill="white"></path><path d="M141.055 38.7949H141.875L149.785 48.7649V38.7949H150.615V50.2549H149.955L141.875 40.0749V50.2549H141.055V38.7949Z" fill="white"></path><path d="M157.295 38.7949H156.425V50.2449H157.295V38.7949Z" fill="white"></path><path d="M162.105 38.7949H163.055L167.545 49.3449L172.035 38.7949H172.945L167.915 50.3349H167.135L162.105 38.7949Z" fill="white"></path><path d="M177.675 38.7949H185.835V39.5849H178.505V44.0749H185.095V44.8549H178.505V49.4649H185.915V50.2549H177.675V38.7949Z" fill="white"></path><path d="M190.945 38.7952H195.765C197.165 38.7952 198.315 39.2452 198.975 39.9052C199.515 40.4452 199.845 41.2252 199.845 42.0452V42.0852C199.845 44.0252 198.405 45.0952 196.465 45.3352L200.255 50.2352H199.185L195.515 45.4952H191.765V50.2352H190.895V38.7852H190.935L190.945 38.7952ZM195.645 44.7352C197.585 44.7352 198.985 43.7852 198.985 42.0952V42.0552C198.985 40.5352 197.795 39.5452 195.685 39.5452H191.775V44.6952H195.645V44.7352Z" fill="white"></path><path d="M204.335 48.5653L204.875 47.9453C206.155 49.0953 207.305 49.6353 208.995 49.6353C210.685 49.6353 211.875 48.6853 211.875 47.3653V47.3253C211.875 46.1353 211.215 45.3853 208.625 44.8953C205.865 44.3153 204.755 43.4153 204.755 41.6853V41.6453C204.755 39.9553 206.325 38.6353 208.465 38.6353C210.155 38.6353 211.225 39.0853 212.375 40.0353L211.835 40.6953C210.765 39.7453 209.695 39.4153 208.415 39.4153C206.725 39.4153 205.615 40.3653 205.615 41.5953V41.6353C205.615 42.8253 206.235 43.5753 208.955 44.1453C211.595 44.6853 212.705 45.6253 212.705 47.3153V47.3553C212.705 49.2053 211.095 50.4853 208.915 50.4853C207.145 50.4053 205.705 49.7853 204.345 48.5453" fill="white"></path><path d="M218.845 38.7949H217.975V50.2449H218.845V38.7949Z" fill="white"></path><path d="M227.825 39.5849H223.825V38.7949H232.685V39.5849H228.685V50.2549H227.825V39.5849Z" fill="white"></path><path d="M241.295 45.7149L236.395 38.7949H237.425L241.745 44.9349L246.035 38.7949H247.065L242.115 45.7149V50.2549H241.295V45.7149Z" fill="white"></path><path d="M125.475 61.125C125.475 58.245 127.615 55.895 130.665 55.895C132.515 55.895 133.635 56.555 134.575 57.465L133.425 58.785C132.645 58.045 131.775 57.545 130.625 57.545C128.725 57.545 127.325 59.115 127.325 61.085V61.125C127.325 63.105 128.725 64.665 130.625 64.665C131.865 64.665 132.645 64.175 133.505 63.385L134.615 64.535C133.585 65.605 132.435 66.305 130.535 66.305C127.655 66.265 125.465 63.995 125.465 61.115" fill="white"></path><path d="M136.395 56.105H143.855V57.665H138.165V60.265H143.195V61.865H138.165V64.545H143.935V66.115H136.395V56.105Z" fill="white"></path><path d="M145.955 56.105H147.565L152.955 63.025V56.105H154.685V66.115H153.205L147.685 58.985V66.115H145.955V56.105Z" fill="white"></path><path d="M159.675 57.705H156.505V56.105H164.615V57.705H161.445V66.115H159.675V57.705Z" fill="white"></path><path d="M166.435 56.105H170.925C172.205 56.105 173.195 56.475 173.805 57.095C174.345 57.635 174.625 58.375 174.625 59.275V59.315C174.625 60.965 173.635 61.955 172.235 62.365L174.955 66.155H172.855L170.385 62.655H168.165V66.155H166.395L166.435 56.105ZM170.755 61.045C172.035 61.045 172.815 60.385 172.815 59.355V59.315C172.815 58.245 172.035 57.665 170.755 57.665H168.205V61.045H170.755Z" fill="white"></path><path d="M180.275 56.0151H181.925L186.335 66.1051H184.485L183.455 63.6751H178.715L177.685 66.1051H175.875L180.285 56.0151H180.275ZM182.785 62.1551L181.055 58.1551L179.325 62.1551H182.785Z" fill="white"></path><path d="M187.985 56.105H189.715V64.505H194.985V66.115H187.985V56.105Z" fill="white"></path><path d="M203.475 57.705H200.295V56.105H208.415V57.705H205.245V66.115H203.475V57.705Z" fill="white"></path><path d="M210.225 56.105H217.645V57.665H211.955V60.265H217.025V61.865H211.955V64.545H217.725V66.115H210.225V56.105Z" fill="white"></path><path d="M228.235 56.105L224.735 61.005L228.395 66.115H226.295L223.655 62.285L221.025 66.115H219.005L222.625 61.005L219.125 56.105H221.225L223.705 59.725L226.215 56.105H228.235Z" fill="white"></path><path d="M233.465 56.0151H235.115L239.525 66.1051H237.675L236.645 63.6751H231.905L230.875 66.1051H229.065L233.475 56.0151H233.465ZM236.015 62.1551L234.285 58.1551L232.555 62.1551H236.015Z" fill="white"></path><path d="M240.345 64.675L241.415 63.395C242.365 64.215 243.355 64.715 244.585 64.715C245.695 64.715 246.355 64.175 246.355 63.435V63.395C246.355 62.695 245.945 62.285 244.085 61.875C241.945 61.385 240.745 60.725 240.745 58.865V58.825C240.745 57.095 242.185 55.895 244.165 55.895C245.645 55.895 246.805 56.345 247.795 57.175L246.845 58.495C245.935 57.835 245.035 57.465 244.125 57.465C243.095 57.465 242.475 58.005 242.475 58.655V58.695C242.475 59.475 242.925 59.805 244.865 60.265C247.005 60.755 248.075 61.545 248.075 63.195V63.235C248.075 65.135 246.595 66.245 244.495 66.245C242.975 66.285 241.525 65.755 240.335 64.675" fill="white"></path><path d="M103.725 0.765137V88.2351" stroke="white" stroke-width="1.5" stroke-linecap="round" stroke-linejoin="round"></path><path d="M16.875 32.1251V17.9951H35.335V25.0751H23.835V32.1251H16.875Z" fill="white"></path><path d="M67.835 32.1251V17.9951H49.385V25.0751H60.875V32.1251H67.835Z" fill="white"></path><path d="M26.145 50.2554V57.7154C26.145 57.7154 27.015 61.8754 34.965 63.0254V50.2554H26.145Z" fill="white"></path><path d="M16.875 50.2554H23.875V58.3354C23.875 58.3354 23.465 63.1554 32.525 64.7254C41.585 66.2454 42.375 70.6554 42.375 70.6554V77.6154C42.375 77.6154 37.515 72.3454 30.555 70.9454C23.595 69.5454 20.135 67.1154 19.015 65.8754C17.905 64.5954 16.875 61.9654 16.875 58.3754C16.875 54.7954 16.875 50.2554 16.875 50.2554Z" fill="white"></path><path d="M67.8351 50.2554H60.8351V58.3354C60.8351 58.3354 61.2451 63.1554 52.1851 64.7254C43.1251 66.2454 42.3351 70.6554 42.3351 70.6554V77.6154C42.3351 77.6154 47.1951 72.3454 54.1551 70.9454C61.1151 69.5454 64.5751 67.1154 65.6951 65.8754C66.8051 64.5954 67.8351 61.9654 67.8351 58.3754V50.2554Z" fill="white"></path><path d="M42.3351 67.4749C42.3351 67.4749 42.7451 65.0449 46.7051 63.1449V51.2749C46.7051 51.2749 45.0951 51.7649 42.3351 51.7649C39.7351 51.7649 37.9651 51.2749 37.9651 51.2749V63.1849C41.9251 65.0349 42.3351 67.4649 42.3351 67.4649" fill="white"></path><path d="M58.565 50.2554V57.7154C58.565 57.7154 57.695 61.8754 49.745 63.0254V50.2554H58.565Z" fill="white"></path><path d="M48.435 11.4852C48.435 11.4852 44.895 12.6352 44.475 16.1852C44.105 19.6852 46.205 20.8852 48.805 25.8652C51.405 30.8552 49.465 34.2252 44.435 37.0352C44.435 37.0352 46.575 32.3752 43.655 30.2352C40.935 28.2552 39.085 25.2452 38.875 21.0852C38.715 16.9252 41.885 11.1952 48.435 11.4852Z" fill="white"></path><path d="M42.175 38.385C42.175 38.385 42.795 37.065 41.265 36.205C39.695 35.335 35.165 34.725 34.755 30.685C34.345 26.645 37.105 23.885 37.925 23.395C37.925 23.395 38.545 27.925 40.765 29.825C42.575 31.345 43.695 32.545 43.855 33.575C43.935 34.155 44.475 36.255 42.165 38.395" fill="white"></path><path d="M49.715 46.2952C49.715 46.2952 46.7051 47.9452 42.2951 47.9452C37.8851 47.9452 34.835 46.3352 34.835 46.3352L1.79505 47.1152L0.925049 48.8852L34.915 47.9752C34.915 47.9752 35.8251 50.2452 42.3751 50.2452C48.9251 50.2452 49.745 47.9752 49.745 47.9752L83.6951 48.9252L82.8251 46.9852L49.6951 46.2852L49.715 46.2952Z" fill="white"></path><path d="M49.715 46.3049C49.715 46.3049 46.7051 47.9549 42.2951 47.9549C37.8851 47.9549 34.835 46.3449 34.835 46.3449L1.79505 47.1249L0.925049 48.8949L34.915 47.9849C34.915 47.9849 35.8251 50.2549 42.3751 50.2549C48.9251 50.2549 49.745 47.9849 49.745 47.9849L83.6951 48.9349L82.8251 46.9949L49.6951 46.2949L49.715 46.3049Z" fill="white" stroke="white" stroke-width="0.95"></path><path d="M42.3751 41.1853C42.3751 41.1853 40.2351 38.3453 37.2251 36.5753C34.1751 34.8053 29.6851 32.6153 20.4551 34.9653C11.2251 37.3153 10.7751 37.9353 6.1951 35.6253L3.1051 39.1653C3.1051 39.1653 5.5751 40.6453 9.9051 40.6453C14.2351 40.6453 20.3651 38.1353 21.4851 37.8453C22.5551 37.5553 30.9151 34.9153 36.6451 39.9453C42.1651 44.8053 42.3351 46.5353 42.3351 46.5353L42.3751 41.1753V41.1853Z" fill="white"></path><path d="M37.9651 45.3852C37.9651 45.3852 37.0551 42.9552 33.6851 40.6852C30.3451 38.4152 24.7451 38.1352 19.5551 40.2352C14.3651 42.3752 8.76508 43.0752 6.65508 42.6252C4.55508 42.1752 4.14508 41.6352 4.14508 41.6352L2.08508 43.9852C2.08508 43.9852 5.21508 45.0952 9.78508 44.6052C14.3551 44.1152 16.5451 43.7852 21.9851 41.6352C27.4651 39.5352 34.3851 41.3052 37.9751 45.3852" fill="white"></path><path d="M34.9151 45.3852C34.9151 45.3852 33.3451 42.3752 27.2551 42.2552C21.1151 42.1352 20.1651 44.9352 14.4451 45.3852C14.4451 45.3852 18.0251 45.5052 23.5551 43.8152C29.0751 42.1652 34.0651 44.5152 34.9251 45.3852" fill="white"></path><path d="M42.3351 41.1853C42.3351 41.1853 44.4751 38.3453 47.4851 36.5753C50.5351 34.8053 55.0251 32.6153 64.2551 34.9653C73.4851 37.3153 73.9351 37.9353 78.4651 35.6253L81.5551 39.1653C81.5551 39.1653 79.0851 40.6453 74.7551 40.6453C70.4251 40.6453 64.2451 38.1353 63.1751 37.8453C62.1051 37.5553 53.7451 34.9153 48.0151 39.9453C42.4951 44.8053 42.3251 46.5353 42.3251 46.5353V41.1753L42.3351 41.1853Z" fill="white"></path><path d="M46.7051 45.3852C46.7051 45.3852 47.6151 42.9552 50.9851 40.6852C54.3251 38.4152 59.9251 38.1352 65.1151 40.2352C70.3051 42.3752 75.9051 43.0752 78.0151 42.6252C80.1251 42.1752 80.5251 41.6352 80.5251 41.6352L82.5851 43.9852C82.5851 43.9852 79.4551 45.0952 74.8851 44.6052C70.3151 44.1152 68.1251 43.7852 62.6851 41.6352C57.2451 39.5352 50.3251 41.3052 46.6951 45.3852" fill="white"></path><path d="M49.795 45.3852C49.795 45.3852 51.365 42.3752 57.455 42.2552C63.595 42.1352 64.545 44.9352 70.265 45.3852C70.265 45.3852 66.685 45.5052 61.155 43.8152C55.635 42.1652 50.605 44.5152 49.785 45.3852" fill="white"></path></svg>